<svg width="17" height="13" viewBox="0 0 17 13" fill="none" xmlns="http://www.w3.org/2000/svg">
<path d="M1.30542 5.0446L0.65271 5.66954L0 5.0446L0.65271 4.41966L1.30542 5.0446ZM17 12.1161C17 12.3505 16.9027 12.5753 16.7296 12.7411C16.5565 12.9069 16.3216 13 16.0768 13C15.8319 13 15.5971 12.9069 15.424 12.7411C15.2508 12.5753 15.1536 12.3505 15.1536 12.1161H17ZM5.26876 10.0892L0.65271 5.66954L1.95813 4.41966L6.57418 8.83933L5.26876 10.0892ZM0.65271 4.41966L5.26876 0L6.57418 1.24988L1.95813 5.66954L0.65271 4.41966ZM1.30542 4.16067H10.5375V5.92854H1.30542V4.16067ZM17 10.3482V12.1161H15.1536V10.3482H17ZM10.5375 4.16067C12.2515 4.16067 13.8952 4.81257 15.1072 5.97296C16.3191 7.13334 17 8.70717 17 10.3482H15.1536C15.1536 9.17603 14.6672 8.05187 13.8016 7.22303C12.9359 6.39418 11.7618 5.92854 10.5375 5.92854V4.16067Z" fill="black"/>
</svg>
