<svg width="22" height="17" viewBox="0 0 22 17" fill="none" xmlns="http://www.w3.org/2000/svg">
<path d="M22 8.5031L18.8048 7.37268C18.5324 6.22227 17.8514 5.56203 17.8514 5.56203C17.4437 5.17214 16.9595 4.86283 16.4266 4.65179C15.8936 4.44076 15.3222 4.33213 14.7452 4.33213C14.1682 4.33213 13.5969 4.44076 13.0639 4.65179C12.5309 4.86283 12.0467 5.17214 11.639 5.56203L10.0886 7.04256L3.14286 0C2.09524 4.00146 3.14286 8.00291 5.70952 11.2241L0 16.506C0 16.506 9.31333 18.5067 14.74 14.4553C17.6314 12.2945 18.281 11.034 18.6895 9.70353L22 8.5031ZM16.4581 8.72318C16.0495 9.11332 15.379 9.11332 14.9705 8.72318C14.8734 8.63063 14.7963 8.5207 14.7437 8.39968C14.6912 8.27867 14.6641 8.14894 14.6641 8.01792C14.6641 7.8869 14.6912 7.75717 14.7437 7.63616C14.7963 7.51514 14.8734 7.40521 14.9705 7.31266C15.379 6.92252 16.0495 6.92252 16.4581 7.31266C16.8667 7.70281 16.8667 8.33303 16.4581 8.72318Z" fill="black"/>
</svg>
