<svg width="12" height="15" viewBox="0 0 12 15" fill="none" xmlns="http://www.w3.org/2000/svg">
<path d="M6 13.467C7.525 12.0181 8.65625 10.7019 9.39375 9.5185C10.1312 8.33506 10.5 7.28383 10.5 6.36481C10.5 4.95472 10.0657 3.80026 9.19725 2.90142C8.32875 2.00259 7.263 1.55291 6 1.55239C4.737 1.55188 3.6715 2.00155 2.8035 2.90142C1.9355 3.80129 1.501 4.95576 1.5 6.36481C1.5 7.28331 1.86875 8.33454 2.60625 9.5185C3.34375 10.7025 4.475 12.0186 6 13.467ZM6 15C5.825 15 5.65 14.9677 5.475 14.903C5.3 14.8383 5.14375 14.7413 5.00625 14.6119C4.19375 13.8357 3.475 13.0789 2.85 12.3415C2.225 11.6041 1.70325 10.8895 1.28475 10.1977C0.86625 9.50582 0.5475 8.83959 0.3285 8.19896C0.1095 7.55834 0 6.94696 0 6.36481C0 4.42432 0.60325 2.8784 1.80975 1.72704C3.01625 0.575679 4.413 0 6 0C7.587 0 8.984 0.575679 10.191 1.72704C11.398 2.8784 12.001 4.42432 12 6.36481C12 6.94696 11.8907 7.55834 11.6722 8.19896C11.4537 8.83959 11.135 9.50582 10.716 10.1977C10.297 10.8895 9.775 11.6041 9.15 12.3415C8.525 13.0789 7.80625 13.8357 6.99375 14.6119C6.85625 14.7413 6.7 14.8383 6.525 14.903C6.35 14.9677 6.175 15 6 15ZM6 7.76197C6.4125 7.76197 6.76575 7.61009 7.05975 7.30634C7.35375 7.00259 7.5005 6.637 7.5 6.20957C7.4995 5.78215 7.35275 5.41682 7.05975 5.11358C6.76675 4.81035 6.4135 4.65821 6 4.65718C5.5865 4.65614 5.2335 4.80828 4.941 5.11358C4.6485 5.41889 4.5015 5.78422 4.5 6.20957C4.4985 6.63493 4.6455 7.00052 4.941 7.30634C5.2365 7.61216 5.5895 7.76404 6 7.76197Z" fill="black"/>
</svg>
