<svg width="18" height="18" viewBox="0 0 18 18" fill="none" xmlns="http://www.w3.org/2000/svg">
<path d="M8 10H10V12H8V10Z" fill="black"/>
<path d="M6 8H8V10H6V8Z" fill="black"/>
<path d="M10 8H12V10H10V8Z" fill="black"/>
<path d="M8 6H10V8H8V6Z" fill="black"/>
<path d="M6 4H8V6H6V4Z" fill="black"/>
<path d="M4 6H6V8H4V6Z" fill="black"/>
<path d="M4 12H6V10H4V12Z" fill="black"/>
<path d="M16 12H18V14H16V12Z" fill="black"/>
<path d="M16 6H18V4H16V6Z" fill="black"/>
<path d="M2 6H4V8H2V6Z" fill="black"/>
<path d="M2 12H4V10H2V12Z" fill="black"/>
<path d="M14 12H16V14H14V12Z" fill="black"/>
<path d="M14 6H16V4H14V6Z" fill="black"/>
<path d="M2 4H4V6H2V4Z" fill="black"/>
<path d="M2 14H4V12H2V14Z" fill="black"/>
<path d="M14 10H16V12H14V10Z" fill="black"/>
<path d="M14 8H16V6H14V8Z" fill="black"/>
<path d="M0 4H2V6H0V4Z" fill="black"/>
<path d="M0 14H2V12H0V14Z" fill="black"/>
<path d="M12 10H14V12H12V10Z" fill="black"/>
<path d="M12 8H14V6H12V8Z" fill="black"/>
<path d="M12 4H10V6H12V4Z" fill="black"/>
<path d="M6 14H8V12H6V14Z" fill="black"/>
<path d="M12 14H10V12H12V14Z" fill="black"/>
<path d="M6 2H8V4H6V2Z" fill="black"/>
<path d="M12 2H10V4H12V2Z" fill="black"/>
<path d="M6 16H8V14H6V16Z" fill="black"/>
<path d="M12 16H10V14H12V16Z" fill="black"/>
<path d="M4 2H6V4H4V2Z" fill="black"/>
<path d="M14 2H12V4H14V2Z" fill="black"/>
<path d="M4 16H6V14H4V16Z" fill="black"/>
<path d="M14 16H12V14H14V16Z" fill="black"/>
<path d="M4 0H6V2H4V0Z" fill="black"/>
<path d="M14 0H12V2H14V0Z" fill="black"/>
<path d="M4 18H6V16H4V18Z" fill="black"/>
<path d="M14 18H12V16H14V18Z" fill="black"/>
<path d="M4 12H6V10H4V12Z" fill="#CA4040"/>
<path d="M16 6H18V4H16V6Z" fill="#CA4040"/>
<path d="M2 12H4V10H2V12Z" fill="#CA4040"/>
<path d="M14 6H16V4H14V6Z" fill="#CA4040"/>
<path d="M2 14H4V12H2V14Z" fill="#CA4040"/>
<path d="M14 8H16V6H14V8Z" fill="#CA4040"/>
<path d="M0 14H2V12H0V14Z" fill="#CA4040"/>
<path d="M12 8H14V6H12V8Z" fill="#CA4040"/>
<path d="M12 4H10V6H12V4Z" fill="#CA4040"/>
<path d="M6 14H8V12H6V14Z" fill="#CA4040"/>
<path d="M12 2H10V4H12V2Z" fill="#CA4040"/>
<path d="M6 16H8V14H6V16Z" fill="#CA4040"/>
<path d="M14 2H12V4H14V2Z" fill="#CA4040"/>
<path d="M4 16H6V14H4V16Z" fill="#CA4040"/>
<path d="M14 0H12V2H14V0Z" fill="#CA4040"/>
<path d="M4 18H6V16H4V18Z" fill="#CA4040"/>
</svg>
