<svg width="16" height="16" viewBox="0 0 16 16" fill="none" xmlns="http://www.w3.org/2000/svg">
<path d="M8 16C6.90667 16 5.87333 15.7899 4.9 15.3696C3.92667 14.9493 3.0768 14.376 2.3504 13.6496C1.624 12.9232 1.05067 12.0733 0.6304 11.1C0.210133 10.1267 0 9.09333 0 8C0 6.89333 0.2168 5.85333 0.6504 4.88C1.084 3.90667 1.67067 3.06 2.4104 2.34C3.15013 1.62 4.01333 1.05013 5 0.6304C5.98667 0.210667 7.04 0.000533333 8.16 0C9.22667 0 10.2333 0.183467 11.18 0.5504C12.1267 0.917333 12.9568 1.424 13.6704 2.0704C14.384 2.7168 14.9507 3.48347 15.3704 4.3704C15.7901 5.25733 16 6.21387 16 7.24C16 8.77333 15.5333 9.95013 14.6 10.7704C13.6667 11.5907 12.5333 12.0005 11.2 12H9.72C9.6 12 9.5168 12.0333 9.4704 12.1C9.424 12.1667 9.40053 12.24 9.4 12.32C9.4 12.48 9.5 12.7101 9.7 13.0104C9.9 13.3107 10 13.6539 10 14.04C10 14.7067 9.8168 15.2 9.4504 15.52C9.084 15.84 8.60053 16 8 16ZM3.6 8.8C3.94667 8.8 4.23333 8.68667 4.46 8.46C4.68667 8.23333 4.8 7.94667 4.8 7.6C4.8 7.25333 4.68667 6.96667 4.46 6.74C4.23333 6.51333 3.94667 6.4 3.6 6.4C3.25333 6.4 2.96667 6.51333 2.74 6.74C2.51333 6.96667 2.4 7.25333 2.4 7.6C2.4 7.94667 2.51333 8.23333 2.74 8.46C2.96667 8.68667 3.25333 8.8 3.6 8.8ZM6 5.6C6.34667 5.6 6.63333 5.48667 6.86 5.26C7.08667 5.03333 7.2 4.74667 7.2 4.4C7.2 4.05333 7.08667 3.76667 6.86 3.54C6.63333 3.31333 6.34667 3.2 6 3.2C5.65333 3.2 5.36667 3.31333 5.14 3.54C4.91333 3.76667 4.8 4.05333 4.8 4.4C4.8 4.74667 4.91333 5.03333 5.14 5.26C5.36667 5.48667 5.65333 5.6 6 5.6ZM10 5.6C10.3467 5.6 10.6333 5.48667 10.86 5.26C11.0867 5.03333 11.2 4.74667 11.2 4.4C11.2 4.05333 11.0867 3.76667 10.86 3.54C10.6333 3.31333 10.3467 3.2 10 3.2C9.65333 3.2 9.36667 3.31333 9.14 3.54C8.91333 3.76667 8.8 4.05333 8.8 4.4C8.8 4.74667 8.91333 5.03333 9.14 5.26C9.36667 5.48667 9.65333 5.6 10 5.6ZM12.4 8.8C12.7467 8.8 13.0333 8.68667 13.26 8.46C13.4867 8.23333 13.6 7.94667 13.6 7.6C13.6 7.25333 13.4867 6.96667 13.26 6.74C13.0333 6.51333 12.7467 6.4 12.4 6.4C12.0533 6.4 11.7667 6.51333 11.54 6.74C11.3133 6.96667 11.2 7.25333 11.2 7.6C11.2 7.94667 11.3133 8.23333 11.54 8.46C11.7667 8.68667 12.0533 8.8 12.4 8.8ZM8 14.4C8.12 14.4 8.2168 14.3667 8.2904 14.3C8.364 14.2333 8.40053 14.1467 8.4 14.04C8.4 13.8533 8.3 13.6333 8.1 13.38C7.9 13.1267 7.8 12.7467 7.8 12.24C7.8 11.68 7.99333 11.2333 8.38 10.9C8.76667 10.5667 9.24 10.4 9.8 10.4H11.2C12.08 10.4 12.8333 10.1435 13.46 9.6304C14.0867 9.11733 14.4 8.32053 14.4 7.24C14.4 5.62667 13.7835 4.2832 12.5504 3.2096C11.3173 2.136 9.85387 1.59947 8.16 1.6C6.34667 1.6 4.8 2.22 3.52 3.46C2.24 4.7 1.6 6.21333 1.6 8C1.6 9.77333 2.22347 11.2835 3.4704 12.5304C4.71733 13.7773 6.2272 14.4005 8 14.4Z" fill="black"/>
</svg>
