<svg width="16" height="18" viewBox="0 0 16 18" fill="none" xmlns="http://www.w3.org/2000/svg">
<path d="M13.1666 17.3334C12.4722 17.3334 11.8819 17.0904 11.3958 16.6042C10.9097 16.1181 10.6666 15.5279 10.6666 14.8334C10.6666 14.7501 10.6875 14.5556 10.7291 14.2501L4.87496 10.8334C4.65274 11.0417 4.39579 11.2051 4.10413 11.3234C3.81246 11.4417 3.49996 11.5006 3.16663 11.5001C2.47218 11.5001 1.8819 11.257 1.39579 10.7709C0.909682 10.2848 0.666626 9.69453 0.666626 9.00008C0.666626 8.30564 0.909682 7.71536 1.39579 7.22925C1.8819 6.74314 2.47218 6.50008 3.16663 6.50008C3.49996 6.50008 3.81246 6.55925 4.10413 6.67758C4.39579 6.79592 4.65274 6.95897 4.87496 7.16675L10.7291 3.75008C10.7013 3.65286 10.6841 3.55925 10.6775 3.46925C10.6708 3.37925 10.6672 3.27841 10.6666 3.16675C10.6666 2.4723 10.9097 1.88203 11.3958 1.39591C11.8819 0.909804 12.4722 0.666748 13.1666 0.666748C13.8611 0.666748 14.4513 0.909804 14.9375 1.39591C15.4236 1.88203 15.6666 2.4723 15.6666 3.16675C15.6666 3.86119 15.4236 4.45147 14.9375 4.93758C14.4513 5.42369 13.8611 5.66675 13.1666 5.66675C12.8333 5.66675 12.5208 5.60758 12.2291 5.48925C11.9375 5.37091 11.6805 5.20786 11.4583 5.00008L5.60413 8.41675C5.6319 8.51397 5.6494 8.60786 5.65663 8.69841C5.66385 8.78897 5.66718 8.88953 5.66663 9.00008C5.66607 9.11064 5.66274 9.21147 5.65663 9.30258C5.65051 9.39369 5.63301 9.4873 5.60413 9.58342L11.4583 13.0001C11.6805 12.7917 11.9375 12.6287 12.2291 12.5109C12.5208 12.3931 12.8333 12.334 13.1666 12.3334C13.8611 12.3334 14.4513 12.5765 14.9375 13.0626C15.4236 13.5487 15.6666 14.139 15.6666 14.8334C15.6666 15.5279 15.4236 16.1181 14.9375 16.6042C14.4513 17.0904 13.8611 17.3334 13.1666 17.3334ZM13.1666 15.6667C13.4027 15.6667 13.6008 15.587 13.7608 15.4276C13.9208 15.2681 14.0005 15.0701 14 14.8334C13.9994 14.5967 13.9194 14.399 13.76 14.2401C13.6005 14.0812 13.4027 14.0012 13.1666 14.0001C12.9305 13.999 12.7327 14.079 12.5733 14.2401C12.4138 14.4012 12.3338 14.599 12.3333 14.8334C12.3327 15.0679 12.4127 15.2659 12.5733 15.4276C12.7338 15.5892 12.9316 15.669 13.1666 15.6667ZM3.16663 9.83342C3.40274 9.83342 3.60079 9.75342 3.76079 9.59342C3.92079 9.43342 4.00051 9.23564 3.99996 9.00008C3.9994 8.76453 3.9194 8.56675 3.75996 8.40675C3.60051 8.24675 3.40274 8.16675 3.16663 8.16675C2.93051 8.16675 2.73274 8.24675 2.57329 8.40675C2.41385 8.56675 2.33385 8.76453 2.33329 9.00008C2.33274 9.23564 2.41274 9.43369 2.57329 9.59425C2.73385 9.7548 2.93163 9.83453 3.16663 9.83342ZM13.1666 4.00008C13.4027 4.00008 13.6008 3.92008 13.7608 3.76008C13.9208 3.60008 14.0005 3.4023 14 3.16675C13.9994 2.93119 13.9194 2.73341 13.76 2.57341C13.6005 2.41341 13.4027 2.33341 13.1666 2.33341C12.9305 2.33341 12.7327 2.41341 12.5733 2.57341C12.4138 2.73341 12.3338 2.93119 12.3333 3.16675C12.3327 3.4023 12.4127 3.60036 12.5733 3.76091C12.7338 3.92147 12.9316 4.00119 13.1666 4.00008Z" fill="black"/>
</svg>
